<svg width="28" height="28" viewBox="0 0 28 28" fill="none" xmlns="http://www.w3.org/2000/svg">
<path opacity="0.5" d="M14 0.666992C17.6226 0.666992 18.0746 0.680325 19.496 0.746992C20.916 0.813659 21.8826 1.03633 22.7333 1.36699C23.6133 1.70566 24.3546 2.16433 25.096 2.90433C25.774 3.57085 26.2986 4.37711 26.6333 5.26699C26.9626 6.11633 27.1866 7.08433 27.2533 8.50433C27.316 9.92566 27.3333 10.3777 27.3333 14.0003C27.3333 17.623 27.32 18.075 27.2533 19.4963C27.1866 20.9163 26.9626 21.883 26.6333 22.7337C26.2995 23.624 25.7748 24.4305 25.096 25.0963C24.4292 25.7741 23.623 26.2987 22.7333 26.6337C21.884 26.963 20.916 27.187 19.496 27.2537C18.0746 27.3163 17.6226 27.3337 14 27.3337C10.3773 27.3337 9.92529 27.3203 8.50396 27.2537C7.08396 27.187 6.11729 26.963 5.26663 26.6337C4.37639 26.2996 3.57 25.7749 2.90396 25.0963C2.22583 24.4299 1.7012 23.6236 1.36663 22.7337C1.03596 21.8843 0.813293 20.9163 0.746626 19.4963C0.683959 18.075 0.666626 17.623 0.666626 14.0003C0.666626 10.3777 0.679959 9.92566 0.746626 8.50433C0.813293 7.08299 1.03596 6.11766 1.36663 5.26699C1.70027 4.37657 2.22503 3.57009 2.90396 2.90433C3.57019 2.22597 4.37653 1.7013 5.26663 1.36699C6.11729 1.03633 7.08263 0.813659 8.50396 0.746992C9.92529 0.684325 10.3773 0.666992 14 0.666992ZM14 7.33366C12.2319 7.33366 10.5362 8.03604 9.28592 9.28628C8.03567 10.5365 7.33329 12.2322 7.33329 14.0003C7.33329 15.7684 8.03567 17.4641 9.28592 18.7144C10.5362 19.9646 12.2319 20.667 14 20.667C15.7681 20.667 17.4638 19.9646 18.714 18.7144C19.9643 17.4641 20.6666 15.7684 20.6666 14.0003C20.6666 12.2322 19.9643 10.5365 18.714 9.28628C17.4638 8.03604 15.7681 7.33366 14 7.33366ZM22.6666 7.00033C22.6666 6.5583 22.491 6.13438 22.1785 5.82182C21.8659 5.50925 21.442 5.33366 21 5.33366C20.5579 5.33366 20.134 5.50925 19.8215 5.82182C19.5089 6.13438 19.3333 6.5583 19.3333 7.00033C19.3333 7.44235 19.5089 7.86628 19.8215 8.17884C20.134 8.4914 20.5579 8.66699 21 8.66699C21.442 8.66699 21.8659 8.4914 22.1785 8.17884C22.491 7.86628 22.6666 7.44235 22.6666 7.00033ZM14 10.0003C15.0608 10.0003 16.0782 10.4218 16.8284 11.1719C17.5785 11.922 18 12.9395 18 14.0003C18 15.0612 17.5785 16.0786 16.8284 16.8288C16.0782 17.5789 15.0608 18.0003 14 18.0003C12.9391 18.0003 11.9217 17.5789 11.1715 16.8288C10.4214 16.0786 9.99996 15.0612 9.99996 14.0003C9.99996 12.9395 10.4214 11.922 11.1715 11.1719C11.9217 10.4218 12.9391 10.0003 14 10.0003Z" fill="white"/>
</svg>
